<?xml version="1.0" encoding="UTF-8"?>
<svg id="b" data-name="Trumpet-Flat--Streamline-Fluent-Emoji.svg" xmlns="http://www.w3.org/2000/svg" width="128" height="128" viewBox="0 0 128 128">
  <path d="M105.627,83.215c3.03,1.24,5.75,3.19,7.9,5.71h.97c7.45,0,13.5,6.06,13.5,13.5s-6.05,13.5-13.5,13.5h-.97c-3.9,4.56-9.62,7.26-15.76,7.26-5.87,0-11.36-2.47-15.24-6.67-4.35,5.71-11.16,9.19-18.53,9.19s-14.18-3.48-18.52-9.19c-3.88,4.2-9.37,6.67-15.24,6.67-6.14,0-11.86-2.7-15.76-7.26h-.98C6.057,115.925-.003,109.865-.003,102.425s6.06-13.5,13.5-13.5h.98c2.15-2.52,4.86-4.47,7.9-5.71-3.04-1.25-5.75-3.2-7.9-5.72h-.98C6.057,77.495-.003,71.445-.003,63.995s6.06-13.5,13.5-13.5h.98c2.15-2.51,4.86-4.47,7.9-5.71-3.04-1.24-5.75-3.19-7.91-5.71h-.97C6.057,39.075-.003,33.015-.003,25.575s6.06-13.5,13.5-13.5h.98c3.89-4.56,9.62-7.26,15.76-7.26,5.87,0,11.36,2.47,15.24,6.67,4.34-5.71,11.15-9.19,18.52-9.19s14.18,3.48,18.53,9.19c3.88-4.2,9.37-6.67,15.24-6.67,6.13,0,11.86,2.7,15.76,7.26h.97c7.45,0,13.5,6.06,13.5,13.5s-6.05,13.5-13.5,13.5h-.97c-2.16,2.52-4.87,4.47-7.9,5.71,3.03,1.24,5.74,3.2,7.9,5.71h.97c7.45,0,13.5,6.06,13.5,13.5s-6.05,13.5-13.5,13.5h-.97c-2.15,2.52-4.87,4.47-7.9,5.72Z" fill="#000" stroke-width="0"/>
  <g>
    <line x1="13.499" y1="25.576" x2="114.499" y2="25.576" fill="#fff" stroke="#9ea4a8" stroke-linecap="round" stroke-linejoin="round" stroke-width="13"/>
    <circle cx="30.234" cy="25.576" r="7.258" fill="#d9dbdd" stroke="#d9dbdd" stroke-linecap="round" stroke-linejoin="round" stroke-width="13"/>
    <circle cx="63.999" cy="25.576" r="8.065" fill="#fff" stroke="#d9dbdd" stroke-linecap="round" stroke-linejoin="round" stroke-width="13"/>
    <circle cx="97.765" cy="25.576" r="7.258" fill="#d9dbdd" stroke="#d9dbdd" stroke-linecap="round" stroke-linejoin="round" stroke-width="13"/>
  </g>
  <g>
    <line x1="13.5" y1="64" x2="114.5" y2="64" fill="#fff" stroke="#9ea4a8" stroke-linecap="round" stroke-linejoin="round" stroke-width="13"/>
    <circle cx="30.235" cy="64" r="7.258" fill="#d9dbdd" stroke="#d9dbdd" stroke-linecap="round" stroke-linejoin="round" stroke-width="13"/>
    <circle cx="64" cy="64" r="8.065" fill="#fff" stroke="#d9dbdd" stroke-linecap="round" stroke-linejoin="round" stroke-width="13"/>
    <circle cx="97.765" cy="64" r="7.258" fill="#d9dbdd" stroke="#d9dbdd" stroke-linecap="round" stroke-linejoin="round" stroke-width="13"/>
  </g>
  <g>
    <line x1="13.5" y1="102.424" x2="114.5" y2="102.424" fill="#fff" stroke="#9ea4a8" stroke-linecap="round" stroke-linejoin="round" stroke-width="13"/>
    <circle cx="30.235" cy="102.424" r="7.258" fill="#d9dbdd" stroke="#d9dbdd" stroke-linecap="round" stroke-linejoin="round" stroke-width="13"/>
    <circle cx="64" cy="102.424" r="8.065" fill="#fff" stroke="#d9dbdd" stroke-linecap="round" stroke-linejoin="round" stroke-width="13"/>
    <circle cx="97.765" cy="102.424" r="7.258" fill="#d9dbdd" stroke="#d9dbdd" stroke-linecap="round" stroke-linejoin="round" stroke-width="13"/>
  </g>
  <circle cx="63.999" cy="25.576" r="9.781" fill="#fc0" stroke="#fc0" stroke-linecap="round" stroke-linejoin="round" stroke-width="13"/>
  <circle cx="64" cy="64" r="9.781" fill="#fc0" stroke="#fc0" stroke-linecap="round" stroke-linejoin="round" stroke-width="13"/>
  <circle cx="64" cy="102.424" r="9.781" fill="#fc0" stroke="#fc0" stroke-linecap="round" stroke-linejoin="round" stroke-width="13"/>
  <line x1="63.999" y1="25.576" x2="63.999" y2="102.424" fill="#fc0" stroke="#fc0" stroke-linecap="round" stroke-linejoin="round" stroke-width="13"/>
</svg>